<svg width="800" height="800" viewBox="0 0 800 800" fill="none" xmlns="http://www.w3.org/2000/svg">
<path d="M710.443 663.648H137.695C116.352 663.648 99.0601 646.278 99.0601 625.013V239.052C99.0601 217.71 116.43 200.417 137.695 200.417H710.443C731.786 200.417 749.078 217.788 749.078 239.052V625.013C749.078 646.356 731.786 663.648 710.443 663.648Z" fill="#A7B8C6"/>
<path d="M679.442 157.031H93.6076C81.69 157.031 72.0312 166.69 72.0312 178.607V577.654C72.0312 589.571 81.69 599.23 93.6076 599.23H679.442C691.359 599.23 701.018 589.571 701.018 577.654V178.607C701.018 166.767 691.359 157.031 679.442 157.031Z" fill="#D7D4CA"/>
<path d="M679.442 136H93.6075C70.0838 136 51 155.162 51 178.608V577.654C51 601.178 70.1617 620.262 93.6075 620.262H679.442C702.965 620.262 722.049 601.1 722.049 577.654V178.608C722.127 155.084 702.965 136 679.442 136ZM701.018 577.654C701.018 589.572 691.359 599.23 679.442 599.23H93.6075C81.6899 599.23 72.0311 589.572 72.0311 577.654V178.608C72.0311 166.69 81.6899 157.031 93.6075 157.031H679.442C691.359 157.031 701.018 166.69 701.018 178.608V577.654Z" fill="#1A1A1A"/>
<path d="M650.855 426.151H123.752C112.458 426.151 103.266 416.96 103.266 405.666V200.651C103.266 189.356 112.458 180.165 123.752 180.165H650.855C662.149 180.165 671.341 189.356 671.341 200.651V405.666C671.341 416.96 662.149 426.151 650.855 426.151Z" fill="#3D90BC"/>
<path d="M71.564 369.913H700.707V533.878H71.564V369.913Z" fill="#B7B4AB"/>
<path d="M650.855 475.38H123.752C112.458 475.38 103.266 466.189 103.266 454.894V249.879C103.266 238.585 112.458 229.394 123.752 229.394H650.855C662.149 229.394 671.341 238.585 671.341 249.879V454.894C671.341 466.189 662.149 475.38 650.855 475.38Z" fill="#2A80AC"/>
<path d="M650.855 480.053H123.752C112.458 480.053 103.266 470.862 103.266 459.567V254.553C103.266 243.258 112.458 234.067 123.752 234.067H650.855C662.149 234.067 671.341 243.258 671.341 254.553V459.567C671.341 470.862 662.149 480.053 650.855 480.053Z" fill="#F4AA16"/>
<path d="M650.855 524.53H123.752C112.458 524.53 103.266 515.339 103.266 504.045V299.03C103.266 287.735 112.458 278.544 123.752 278.544H650.855C662.149 278.544 671.341 287.735 671.341 299.03V504.045C671.341 515.339 662.149 524.53 650.855 524.53Z" fill="#DF9513"/>
<path d="M650.855 529.204H123.752C112.458 529.204 103.266 520.013 103.266 508.718V303.781C103.266 292.487 112.458 283.295 123.752 283.295H650.855C662.149 283.295 671.341 292.487 671.341 303.781V508.796C671.341 520.09 662.149 529.204 650.855 529.204Z" fill="#52B240"/>
<path d="M650.855 573.759H123.752C112.458 573.759 103.266 564.568 103.266 553.273V348.258C103.266 336.964 112.458 327.772 123.752 327.772H650.855C662.149 327.772 671.341 336.964 671.341 348.258V553.273C671.341 564.568 662.149 573.759 650.855 573.759Z" fill="#409F37"/>
<path d="M650.855 578.433H123.752C112.458 578.433 103.266 569.241 103.266 557.947V352.932C103.266 341.638 112.458 332.446 123.752 332.446H650.855C662.149 332.446 671.341 341.638 671.341 352.932V557.947C671.341 569.241 662.149 578.433 650.855 578.433Z" fill="#E46A5C"/>
<path d="M671.34 369.913H479.879C465.391 369.913 454.019 381.83 454.019 396.318C454.019 397.487 454.019 398.733 453.941 399.901C452.305 434.174 424.653 462.216 390.458 464.319C351.044 466.734 318.329 435.499 318.329 396.63V396.318C318.407 381.83 307.034 369.913 292.468 369.913H103.188V550.936C103.188 562.231 112.379 571.422 123.674 571.422H650.854C662.149 571.422 671.34 562.231 671.34 550.936V369.913Z" fill="#D95F52"/>
<path d="M481.671 379.26C472.791 379.26 465.781 386.582 465.781 395.462V395.617C465.781 439.627 430.184 475.38 386.174 475.38C342.165 475.38 306.567 439.705 306.567 395.695V395.539C306.567 386.66 299.557 379.338 290.677 379.338H71.564V574.46C71.564 588.325 82.8585 599.619 96.7234 599.619H675.547C689.412 599.619 700.707 588.325 700.707 574.46V379.26H481.671Z" fill="#D7D4CA"/>
</svg>
