<svg width="800" height="800" viewBox="0 0 800 800" fill="none" xmlns="http://www.w3.org/2000/svg">
<path d="M546.702 591.501C554.31 595.124 562.639 597.006 571.258 597.006C579.876 597.006 588.202 595.124 595.812 591.503L571.258 554.873L546.702 591.501Z" fill="#FF8985"/>
<path d="M531.899 517.653C544.72 520.649 557.962 522.168 571.258 522.168C666.282 522.168 743.59 444.86 743.59 349.836C743.59 289.578 711.438 232.888 659.681 201.884C654.246 198.629 652.421 191.659 655.485 186.163C644.777 180.642 633.456 176.148 621.654 172.794C637.33 205.115 646.133 241.366 646.133 279.633C646.133 386.278 577.809 477.251 482.643 511.122C493.764 517.248 505.581 522.267 517.956 526.007C519.587 519.94 525.74 516.219 531.899 517.653Z" fill="#EC4E48"/>
<path d="M364.655 588.046C375.611 593.934 387.819 597.006 400.498 597.006C413.178 597.006 425.386 593.934 436.342 588.048L400.498 534.576L364.655 588.046Z" fill="#FFD085"/>
<path d="M205.173 591.503C212.782 595.124 221.109 597.006 229.727 597.006C238.345 597.006 246.675 595.124 254.282 591.501L229.727 554.873L205.173 591.503Z" fill="#3DE2F3"/>
<path d="M154.867 279.633C154.867 241.364 163.67 205.113 179.348 172.791C167.54 176.146 156.213 180.642 145.502 186.166C148.563 191.66 146.737 198.627 141.305 201.882C89.5477 232.886 57.3955 289.577 57.3955 349.834C57.3955 444.859 134.704 522.167 229.728 522.167C243.024 522.167 256.268 520.648 269.087 517.652C275.24 516.218 281.402 519.941 283.031 526.009C295.413 522.27 307.233 517.249 318.359 511.122C223.191 477.252 154.867 386.278 154.867 279.633Z" fill="#B9F5FB"/>
<path d="M622.739 279.633C622.739 157.089 523.043 57.3936 400.5 57.3936C277.956 57.3936 178.261 157.089 178.261 279.633C178.261 402.176 277.956 501.872 400.5 501.872C523.043 501.872 622.739 402.176 622.739 279.633ZM231.289 233.225C227.149 248.309 225.048 263.923 225.048 279.633C225.048 286.094 219.812 291.33 213.351 291.33C206.89 291.33 201.654 286.094 201.654 279.633C201.654 261.83 204.034 244.132 208.73 227.031C210.441 220.803 216.88 217.134 223.106 218.848C229.337 220.559 233 226.996 231.289 233.225ZM248.123 192.738C245.962 196.512 242.018 198.624 237.961 198.624C235.99 198.624 233.992 198.126 232.16 197.077C226.553 193.866 224.611 186.718 227.821 181.115C263.259 119.229 329.427 80.7872 400.5 80.7872C406.961 80.7872 412.197 86.0226 412.197 92.484C412.197 98.9453 406.961 104.181 400.5 104.181C337.791 104.181 279.402 138.114 248.123 192.738ZM339.61 241.423H318.3C311.838 241.423 306.603 236.188 306.603 229.726C306.603 223.265 311.838 218.03 318.3 218.03H351.074C357.535 218.03 362.771 223.265 362.771 229.726V239.09C362.771 245.551 357.535 250.787 351.074 250.787C345.413 250.787 340.69 246.766 339.61 241.423ZM442.219 311.791C435.958 329.403 419.193 341.236 400.5 341.236C381.808 341.236 365.041 329.403 358.78 311.793C356.615 305.707 359.795 299.018 365.882 296.854C371.964 294.684 378.655 297.867 380.821 303.956C383.775 312.262 391.684 317.842 400.5 317.842C409.316 317.842 417.225 312.262 420.177 303.957C422.34 297.87 429.031 294.684 435.115 296.854C441.203 299.017 444.383 305.706 442.219 311.791ZM482.7 241.423H461.39C460.31 246.766 455.587 250.787 449.926 250.787C443.465 250.787 438.229 245.551 438.229 239.09V229.726C438.229 223.265 443.465 218.03 449.926 218.03H482.7C489.162 218.03 494.397 223.265 494.397 229.726C494.397 236.188 489.16 241.423 482.7 241.423Z" fill="#FEC263"/>
<path d="M646.132 279.633C646.132 241.364 637.33 205.115 621.653 172.794C581.844 90.7232 497.673 34 400.5 34C303.327 34 219.156 90.7217 179.346 172.791C163.667 205.112 154.865 241.362 154.865 279.633C154.865 386.278 223.189 477.253 318.355 511.122C337.649 517.989 358.045 522.505 379.202 524.331L338.566 584.949C335.09 590.131 336.297 597.132 341.308 600.852C355.375 611.296 371.607 617.716 388.801 619.718V755.303C388.801 761.764 394.037 766.999 400.498 766.999C406.959 766.999 412.195 761.764 412.195 755.303V619.718C429.389 617.716 445.621 611.298 459.687 600.853C464.698 597.132 465.903 590.133 462.429 584.95L421.794 524.331C442.951 522.505 463.347 517.989 482.641 511.122C577.809 477.251 646.132 386.278 646.132 279.633ZM400.5 597.006C387.819 597.006 375.612 593.934 364.656 588.046L400.5 534.576L436.343 588.048C425.387 593.934 413.18 597.006 400.5 597.006ZM400.5 501.872C277.956 501.872 178.26 402.176 178.26 279.633C178.26 157.089 277.956 57.3936 400.5 57.3936C523.043 57.3936 622.739 157.089 622.739 279.633C622.739 402.176 523.043 501.872 400.5 501.872Z" fill="#081C1F"/>
<path d="M269.085 517.654C256.264 520.65 243.022 522.169 229.726 522.169C134.702 522.169 57.3936 444.861 57.3936 349.836C57.3936 289.578 89.5458 232.888 141.303 201.884C146.737 198.629 148.562 191.662 145.5 186.168C145.439 186.059 145.389 185.946 145.325 185.839C142.007 180.298 134.823 178.493 129.281 181.817C100.772 198.894 76.8992 223.117 60.2461 251.87C43.0752 281.514 34 315.389 34 349.836C34 450.614 110.563 533.834 208.574 544.416L178.936 588.63C175.46 593.814 176.668 600.813 181.679 604.533C192.495 612.565 204.892 617.65 218.031 619.548V755.303C218.031 761.764 223.267 767 229.728 767C236.189 767 241.425 761.764 241.425 755.303V619.548C254.566 617.65 266.963 612.563 277.78 604.531C282.791 600.81 283.996 593.811 280.522 588.628L250.88 544.413C258.814 543.56 266.679 542.24 274.41 540.436C280.7 538.967 284.609 532.674 283.14 526.384C283.111 526.256 283.067 526.136 283.033 526.011C281.4 519.943 275.238 516.222 269.085 517.654ZM229.726 597.006C221.108 597.006 212.782 595.124 205.173 591.503L229.726 554.873L254.282 591.501C246.674 595.124 238.345 597.006 229.726 597.006Z" fill="#081C1F"/>
<path d="M766.984 349.836C766.984 315.389 757.909 281.512 740.738 251.87C724.085 223.117 700.214 198.894 671.704 181.817C666.161 178.496 658.979 180.296 655.659 185.839C655.595 185.945 655.547 186.056 655.486 186.163C652.421 191.659 654.246 198.629 659.681 201.884C711.438 232.888 743.591 289.578 743.591 349.836C743.591 444.86 666.283 522.169 571.258 522.169C557.962 522.169 544.719 520.649 531.899 517.654C525.74 516.219 519.588 519.94 517.956 526.007C517.922 526.133 517.878 526.255 517.849 526.382C516.38 532.672 520.288 538.964 526.579 540.434C534.31 542.24 542.175 543.558 550.108 544.411L520.467 588.627C516.991 593.809 518.198 600.81 523.209 604.53C534.029 612.565 546.433 617.653 559.578 619.55V755.303C559.578 761.764 564.814 767 571.275 767C577.736 767 582.972 761.764 582.972 755.303V619.547C596.105 617.647 608.496 612.561 619.308 604.533C624.319 600.812 625.526 593.814 622.052 588.63L592.413 544.416C690.423 533.834 766.984 450.612 766.984 349.836ZM571.258 597.006C562.64 597.006 554.31 595.124 546.702 591.501L571.258 554.873L595.812 591.502C588.203 595.124 579.876 597.006 571.258 597.006Z" fill="#081C1F"/>
<path d="M435.114 296.854C429.03 294.683 422.34 297.869 420.176 303.958C417.223 312.262 409.316 317.842 400.499 317.842C391.683 317.842 383.773 312.262 380.821 303.956C378.654 297.869 371.964 294.686 365.881 296.854C359.796 299.018 356.616 305.707 358.779 311.793C365.041 329.404 381.808 341.236 400.499 341.236C419.192 341.236 435.958 329.404 442.218 311.791C444.383 305.706 441.203 299.017 435.114 296.854Z" fill="#081C1F"/>
<path d="M362.769 239.09V229.727C362.769 223.265 357.533 218.03 351.072 218.03H318.297C311.836 218.03 306.601 223.265 306.601 229.727C306.601 236.188 311.836 241.423 318.297 241.423H339.607C340.688 246.766 345.411 250.787 351.072 250.787C357.533 250.787 362.769 245.55 362.769 239.09Z" fill="#081C1F"/>
<path d="M482.7 218.03H449.926C443.464 218.03 438.229 223.265 438.229 229.727V239.09C438.229 245.552 443.464 250.787 449.926 250.787C455.587 250.787 460.308 246.766 461.39 241.423H482.7C489.162 241.423 494.397 236.188 494.397 229.727C494.397 223.265 489.16 218.03 482.7 218.03Z" fill="#081C1F"/>
<path d="M412.197 92.4844C412.197 86.0231 406.961 80.7876 400.5 80.7876C329.427 80.7876 263.259 119.23 227.821 181.115C224.611 186.72 226.554 193.868 232.159 197.077C233.992 198.127 235.99 198.624 237.961 198.624C242.018 198.624 245.962 196.513 248.123 192.738C279.402 138.114 337.791 104.181 400.5 104.181C406.96 104.181 412.197 98.9457 412.197 92.4844Z" fill="white"/>
<path d="M223.106 218.849C216.88 217.135 210.441 220.803 208.73 227.032C204.034 244.133 201.654 261.829 201.654 279.633C201.654 286.094 206.89 291.33 213.351 291.33C219.812 291.33 225.048 286.094 225.048 279.633C225.048 263.924 227.149 248.309 231.289 233.225C233 226.996 229.337 220.56 223.106 218.849Z" fill="white"/>
</svg>
