<svg width="800" height="800" viewBox="0 0 800 800" fill="none" xmlns="http://www.w3.org/2000/svg">
<path d="M399.5 31C265.018 31 156 141.063 156 276.833C156 320.5 167.615 361.339 187.387 396.862C190.671 402.762 194.114 408.569 197.852 414.162L399.5 768.5L601.148 414.162C604.253 409.522 606.932 404.605 609.701 399.75L611.619 396.862C631.373 361.339 643 320.5 643 276.833C643 141.063 533.973 31 399.5 31ZM399.5 153.917C466.736 153.917 521.25 208.95 521.25 276.833C521.25 344.714 466.736 399.75 399.5 399.75C332.261 399.75 277.75 344.714 277.75 276.833C277.75 208.95 332.261 153.917 399.5 153.917Z" fill="#E74C3C"/>
<path d="M402.2 353C392.667 353 384.1 350.767 376.5 346.3C368.967 341.833 363 335.633 358.6 327.7C354.2 319.7 352 310.467 352 300V258.2C352 246.867 354.2 237.1 358.6 228.9C363 220.633 369.2 214.3 377.2 209.9C385.2 205.433 394.6 203.2 405.4 203.2C412.4 203.2 419.067 204.233 425.4 206.3C431.733 208.367 437.533 211.867 442.8 216.8L423.4 236.2C421 233.8 418.233 231.933 415.1 230.6C411.967 229.267 408.733 228.6 405.4 228.6C400.2 228.6 395.667 229.833 391.8 232.3C388 234.7 385.033 237.867 382.9 241.8C380.833 245.667 379.8 249.8 379.8 254.2V275.6L375.2 270.6C379.333 266.4 384.1 263.2 389.5 261C394.967 258.733 400.6 257.6 406.4 257.6C415.467 257.6 423.433 259.633 430.3 263.7C437.233 267.767 442.633 273.333 446.5 280.4C450.433 287.467 452.4 295.533 452.4 304.6C452.4 313.667 450.1 321.867 445.5 329.2C440.9 336.467 434.8 342.267 427.2 346.6C419.6 350.867 411.267 353 402.2 353ZM402.2 327C406.333 327 410.1 326 413.5 324C416.967 322 419.7 319.3 421.7 315.9C423.767 312.5 424.8 308.733 424.8 304.6C424.8 300.467 423.8 296.7 421.8 293.3C419.8 289.833 417.1 287.1 413.7 285.1C410.3 283.033 406.533 282 402.4 282C398.267 282 394.467 283.033 391 285.1C387.6 287.1 384.867 289.833 382.8 293.3C380.8 296.7 379.8 300.467 379.8 304.6C379.8 308.6 380.8 312.3 382.8 315.7C384.8 319.1 387.5 321.833 390.9 323.9C394.3 325.967 398.067 327 402.2 327Z" fill="black"/>
</svg>
