<svg width="800" height="800" viewBox="0 0 800 800" fill="none" xmlns="http://www.w3.org/2000/svg">
<path d="M399.5 31C265.018 31 156 141.063 156 276.833C156 320.5 167.615 361.339 187.387 396.862C190.671 402.762 194.114 408.569 197.852 414.162L399.5 768.5L601.148 414.162C604.253 409.522 606.932 404.605 609.701 399.75L611.619 396.862C631.373 361.339 643 320.5 643 276.833C643 141.063 533.973 31 399.5 31ZM399.5 153.917C466.736 153.917 521.25 208.95 521.25 276.833C521.25 344.714 466.736 399.75 399.5 399.75C332.261 399.75 277.75 344.714 277.75 276.833C277.75 208.95 332.261 153.917 399.5 153.917Z" fill="#E74C3C"/>
<path d="M396 352.6C388.8 352.6 381.933 351.167 375.4 348.3C368.867 345.367 363.167 341.267 358.3 336C353.5 330.733 350.067 324.533 348 317.4L374.4 310.4C375.8 315.667 378.533 319.767 382.6 322.7C386.733 325.567 391.2 327 396 327C400.133 327 403.9 326 407.3 324C410.767 322 413.5 319.3 415.5 315.9C417.567 312.5 418.6 308.733 418.6 304.6C418.6 298.4 416.467 293.1 412.2 288.7C408 284.233 402.6 282 396 282C394 282 392.067 282.3 390.2 282.9C388.333 283.433 386.533 284.2 384.8 285.2L372.6 263.8L418.4 225.8L420.4 231.6H353.6V206H443.6V231.6L408 266L407.8 258.4C416.067 259.667 423.033 262.567 428.7 267.1C434.433 271.567 438.767 277.1 441.7 283.7C444.7 290.233 446.2 297.2 446.2 304.6C446.2 313.667 443.9 321.833 439.3 329.1C434.7 336.3 428.6 342.033 421 346.3C413.4 350.5 405.067 352.6 396 352.6Z" fill="black"/>
</svg>
