<svg width="800" height="800" viewBox="0 0 800 800" fill="none" xmlns="http://www.w3.org/2000/svg">
<path d="M399.5 31C265.018 31 156 141.063 156 276.833C156 320.5 167.615 361.339 187.387 396.862C190.671 402.762 194.114 408.569 197.852 414.162L399.5 768.5L601.148 414.162C604.253 409.522 606.932 404.605 609.701 399.75L611.619 396.862C631.373 361.339 643 320.5 643 276.833C643 141.063 533.973 31 399.5 31ZM399.5 153.917C466.736 153.917 521.25 208.95 521.25 276.833C521.25 344.714 466.736 399.75 399.5 399.75C332.261 399.75 277.75 344.714 277.75 276.833C277.75 208.95 332.261 153.917 399.5 153.917Z" fill="#E74C3C"/>
<path d="M350 349.8V326.2L410.4 272.6C414.933 268.6 418.133 264.833 420 261.3C421.867 257.767 422.8 254.467 422.8 251.4C422.8 247 421.9 243.1 420.1 239.7C418.3 236.233 415.767 233.533 412.5 231.6C409.233 229.6 405.4 228.6 401 228.6C396.4 228.6 392.333 229.667 388.8 231.8C385.333 233.867 382.633 236.633 380.7 240.1C378.767 243.5 377.867 247.2 378 251.2H350C350 241.333 352.167 232.8 356.5 225.6C360.833 218.4 366.867 212.833 374.6 208.9C382.333 204.967 391.333 203 401.6 203C411 203 419.4 205.067 426.8 209.2C434.267 213.267 440.133 218.967 444.4 226.3C448.667 233.633 450.8 242.133 450.8 251.8C450.8 258.933 449.8 264.867 447.8 269.6C445.8 274.267 442.833 278.6 438.9 282.6C434.967 286.533 430.133 291 424.4 296L385.4 330.2L383.2 324.2H450.8V349.8H350Z" fill="black"/>
</svg>
