<svg width="800" height="800" viewBox="0 0 800 800" fill="none" xmlns="http://www.w3.org/2000/svg">
<path d="M399.5 31C265.018 31 156 141.063 156 276.833C156 320.5 167.615 361.339 187.387 396.862C190.671 402.762 194.114 408.569 197.852 414.162L399.5 768.5L601.148 414.162C604.253 409.522 606.932 404.605 609.701 399.75L611.619 396.862C631.373 361.339 643 320.5 643 276.833C643 141.063 533.973 31 399.5 31ZM399.5 153.917C466.736 153.917 521.25 208.95 521.25 276.833C521.25 344.714 466.736 399.75 399.5 399.75C332.261 399.75 277.75 344.714 277.75 276.833C277.75 208.95 332.261 153.917 399.5 153.917Z" fill="#E74C3C"/>
<path d="M366.2 350L414.6 231.6H353V206H443.8V231.6L395.6 350H366.2Z" fill="black"/>
</svg>
