<svg width="800" height="800" viewBox="0 0 800 800" fill="none" xmlns="http://www.w3.org/2000/svg">
<path d="M399.5 31C265.018 31 156 141.063 156 276.833C156 320.5 167.615 361.339 187.387 396.862C190.671 402.762 194.114 408.569 197.852 414.162L399.5 768.5L601.148 414.162C604.253 409.522 606.932 404.605 609.701 399.75L611.619 396.862C631.373 361.339 643 320.5 643 276.833C643 141.063 533.973 31 399.5 31ZM399.5 153.917C466.736 153.917 521.25 208.95 521.25 276.833C521.25 344.714 466.736 399.75 399.5 399.75C332.261 399.75 277.75 344.714 277.75 276.833C277.75 208.95 332.261 153.917 399.5 153.917Z" fill="#E74C3C"/>
<path d="M396.8 353C389.533 353 382.7 351.5 376.3 348.5C369.967 345.5 364.5 341.333 359.9 336C355.3 330.667 352 324.467 350 317.4L376.2 310.4C377.067 313.8 378.6 316.733 380.8 319.2C383.067 321.667 385.667 323.6 388.6 325C391.6 326.333 394.667 327 397.8 327C401.933 327 405.7 326 409.1 324C412.567 322 415.3 319.3 417.3 315.9C419.367 312.5 420.4 308.733 420.4 304.6C420.4 300.467 419.367 296.7 417.3 293.3C415.3 289.9 412.567 287.2 409.1 285.2C405.7 283.2 401.933 282.2 397.8 282.2C392.733 282.2 388.6 283.067 385.4 284.8C382.2 286.467 379.8 288.067 378.2 289.6L355.2 282.6L359.6 206H438.2V231.4H374.6L384.2 222.4L381.2 271.8L376.6 266.2C380.2 263.267 384.3 261.133 388.9 259.8C393.5 258.467 397.8 257.8 401.8 257.8C410.867 257.8 418.833 259.833 425.7 263.9C432.633 267.9 438.033 273.433 441.9 280.5C445.833 287.5 447.8 295.533 447.8 304.6C447.8 313.667 445.433 321.867 440.7 329.2C435.967 336.467 429.733 342.267 422 346.6C414.267 350.867 405.867 353 396.8 353Z" fill="black"/>
</svg>
