<svg width="800" height="800" viewBox="0 0 800 800" fill="none" xmlns="http://www.w3.org/2000/svg">
<path d="M495.932 729.565C401.955 729.565 316.295 673.953 277.689 587.901L274.031 579.735H63.8223V69.8213H713.47V391.527L714.659 394.198C728.277 424.908 735.177 457.344 735.177 490.592C735.177 622.362 627.849 729.565 495.932 729.565Z" fill="white"/>
<path d="M727.293 388.598V69.8227C727.293 62.1543 721.084 56.0001 713.47 56.0001H63.8227C62.0059 55.9944 60.2059 56.3481 58.5263 57.0407C56.8467 57.7334 55.3207 58.7513 54.036 60.036C52.7513 61.3207 51.7334 62.8467 51.0407 64.5263C50.3481 66.2059 49.9944 68.0059 50.0001 69.8227V579.735C50.0001 587.349 56.1561 593.558 63.8227 593.558H265.083C304.631 681.727 393.128 743.389 495.933 743.389C635.505 743.389 749 630.002 749 490.592C749 454.31 741.143 419.834 727.293 388.598Z" fill="#171819"/>
<path d="M609.588 79.001H664.877V134.29H609.588V79.001ZM514.02 79.001H569.309V134.29H514.02V79.001Z" fill="white"/>
<path d="M369.478 376.611C360.464 407.063 355.065 441.404 353.983 478.064H284.98C287.194 440.862 298.965 406.255 318.079 376.611H369.478ZM339.351 348.965C357.87 328.61 380.224 311.872 405.33 299.94C395.287 314.031 386.54 330.61 379.146 348.965H339.351ZM285.143 505.707H354.091C355.279 541.614 360.678 575.253 369.641 605.109H318.347C299.556 576.063 287.733 542.154 285.143 505.707ZM339.837 632.754H379.361C386.703 650.897 395.395 667.31 405.33 681.295C380.386 669.416 358.249 652.896 339.837 632.754ZM482.11 701.219C475.738 700.84 469.474 700.138 463.212 699.167C442.479 686.857 424.12 663.37 410.027 632.754H482.11V701.219ZM482.11 605.109H399.122C389.294 575.629 383.085 541.775 381.736 505.707H482.11V605.109ZM482.11 478.063H381.628C382.817 441.296 389.025 406.632 398.958 376.61H482.11V478.063ZM482.11 348.965H409.758C423.904 318.081 442.371 294.433 463.212 282.068C469.478 281.092 475.783 280.389 482.11 279.961V348.965Z" fill="#79CCBF"/>
<path d="M242.918 490.593C242.918 512.161 245.942 533.003 251.046 553.009H91.1968V159.884H686.529V324.833C640.094 271.623 571.98 237.794 495.933 237.794C356.412 237.794 242.918 351.234 242.918 490.593Z" fill="#F4CE73"/>
<path d="M509.754 478.064V376.611H593.874C603.864 406.633 610.073 441.297 611.207 478.064H509.754ZM611.152 505.708C609.803 541.776 603.539 575.63 593.714 605.11H509.754V505.708H611.152ZM509.754 348.966V279.963C516.666 280.394 523.413 281.204 530.054 282.285C550.735 294.704 569.091 318.298 583.131 348.966H509.754ZM588.044 300.644C612.433 312.469 634.32 328.874 652.511 348.967H613.745C606.456 330.934 597.872 314.627 588.044 300.644ZM530.054 698.953C523.329 700.043 516.554 700.799 509.754 701.22V632.755H582.861C568.875 663.156 550.627 686.587 530.054 698.953ZM588.044 680.594C597.764 666.719 606.292 650.627 613.53 632.755H652.08C633.963 652.62 612.231 668.855 588.044 680.594ZM673.516 605.11H623.247C632.157 575.254 637.556 541.616 638.797 505.708H706.776C704.184 542.155 692.358 576.064 673.516 605.11ZM638.852 478.064C637.827 441.404 632.427 407.065 623.354 376.611H673.839C692.952 406.254 704.723 440.862 706.882 478.064H638.852Z" fill="#79CCBF"/>
</svg>
