<svg width="800" height="800" viewBox="0 0 800 800" fill="none" xmlns="http://www.w3.org/2000/svg">
<path d="M758.765 573.374H40.3467V606.446C40.3492 619.546 45.5542 632.108 54.8172 641.371C64.0801 650.634 76.6425 655.839 89.7423 655.842H709.379C722.478 655.839 735.039 650.634 744.301 641.371C753.562 632.108 758.765 619.545 758.765 606.446V573.374ZM686.495 143.347H112.616C101.646 143.347 91.1244 147.705 83.367 155.462C75.6096 163.219 71.2516 173.741 71.2516 184.711V573.374H727.86V184.721C727.861 179.288 726.792 173.908 724.714 168.888C722.636 163.869 719.589 159.308 715.748 155.466C711.907 151.623 707.346 148.576 702.327 146.496C697.308 144.417 691.928 143.347 686.495 143.347Z" fill="#247396"/>
<path d="M676.365 196.806V521.869H122.747V196.806C122.747 195.722 123.617 194.842 124.701 194.842H674.42C675.484 194.851 676.365 195.722 676.365 196.806Z" fill="#E6E6E6"/>
<path d="M510.171 194.852L224.412 521.869H122.747V518.144L405.255 194.852H510.171ZM676.365 196.806V252.143L440.669 521.869H281.18L566.959 194.852H674.42C675.484 194.852 676.365 195.722 676.365 196.806Z" fill="white"/>
<path d="M447.413 619.722H351.689C341.847 619.719 332.409 615.807 325.45 608.847C318.491 601.887 314.582 592.447 314.582 582.605V573.374H484.53V582.605C484.53 592.449 480.62 601.89 473.659 608.85C466.698 615.811 457.257 619.722 447.413 619.722Z" fill="#4799B5"/>
<path d="M758.765 561.027H740.206V184.721C740.191 170.48 734.527 156.828 724.458 146.758C714.388 136.689 700.736 131.025 686.495 131.01H203.289C201.639 130.963 199.997 131.249 198.459 131.848C196.922 132.447 195.52 133.349 194.336 134.5C193.153 135.65 192.212 137.026 191.57 138.547C190.928 140.067 190.597 141.701 190.597 143.351C190.597 145.002 190.928 146.635 191.57 148.156C192.212 149.676 193.153 151.052 194.336 152.203C195.52 153.354 196.922 154.255 198.459 154.855C199.997 155.454 201.639 155.739 203.289 155.693H686.495C702.499 155.693 715.523 168.717 715.523 184.721V561.027H83.5882V184.721C83.5882 168.717 96.612 155.693 112.616 155.693H162.147C165.422 155.693 168.562 154.392 170.877 152.077C173.193 149.761 174.494 146.621 174.494 143.346C174.494 140.072 173.193 136.932 170.877 134.616C168.562 132.301 165.422 131 162.147 131H112.616C98.3764 131.018 84.7252 136.683 74.6563 146.751C64.5874 156.82 58.9228 170.472 58.9049 184.711V561.027H40.3465C37.072 561.027 33.9316 562.328 31.6162 564.643C29.3008 566.959 28 570.099 28 573.374V606.446C28.0179 622.816 34.5286 638.51 46.1036 650.085C57.6786 661.66 73.3726 668.17 89.7421 668.188H504.491C507.705 668.098 510.756 666.758 512.997 664.454C515.238 662.149 516.492 659.061 516.492 655.847C516.492 652.632 515.238 649.544 512.997 647.239C510.756 644.935 507.705 643.595 504.491 643.505H89.7421C79.92 643.492 70.5038 639.585 63.5585 632.639C56.6133 625.694 52.7058 616.278 52.693 606.456V585.72H302.342C303.145 598.27 308.693 610.044 317.859 618.653C327.025 627.262 339.123 632.062 351.699 632.078H447.422C459.998 632.062 472.096 627.262 481.262 618.653C490.428 610.044 495.976 598.27 496.779 585.72H746.418V606.456C746.406 616.28 742.497 625.697 735.549 632.643C728.602 639.588 719.183 643.495 709.359 643.505H545.624C542.35 643.505 539.211 644.805 536.897 647.12C534.582 649.434 533.282 652.573 533.282 655.847C533.282 659.12 534.582 662.259 536.897 664.573C539.211 666.888 542.35 668.188 545.624 668.188H709.369C725.739 668.17 741.433 661.66 753.008 650.085C764.583 638.51 771.093 622.816 771.111 606.446V573.374C771.111 566.552 765.586 561.027 758.765 561.027ZM447.413 607.375H351.689C345.661 607.367 339.842 605.165 335.319 601.18C330.796 597.195 327.878 591.699 327.112 585.72H471.99C471.223 591.699 468.306 597.195 463.783 601.18C459.26 605.165 453.441 607.367 447.413 607.375Z" fill="black"/>
<path d="M676.365 320.019C683.186 320.019 688.702 314.494 688.702 307.682V196.806C688.702 188.92 682.296 182.505 674.41 182.505H124.702C120.912 182.513 117.28 184.022 114.601 186.703C111.922 189.383 110.415 193.016 110.41 196.806V521.878C110.41 528.69 115.935 534.215 122.747 534.215H676.365C683.186 534.215 688.702 528.69 688.702 521.878V348.824C688.702 345.552 687.402 342.415 685.088 340.101C682.775 337.787 679.637 336.488 676.365 336.488C673.093 336.488 669.955 337.787 667.642 340.101C665.328 342.415 664.028 345.552 664.028 348.824V509.513H135.093V207.188H664.028V307.673C664.028 314.485 669.543 320.019 676.365 320.019Z" fill="black"/>
<path d="M343.232 421.317C341.01 423.65 339.788 426.76 339.827 429.982C339.866 433.204 341.164 436.283 343.442 438.562C345.721 440.84 348.8 442.138 352.022 442.177C355.244 442.217 358.354 440.995 360.687 438.772C371.004 428.483 384.98 422.706 399.551 422.706C414.121 422.706 428.097 428.483 438.414 438.772C439.557 439.923 440.915 440.837 442.413 441.461C443.91 442.084 445.515 442.405 447.137 442.405C448.759 442.405 450.365 442.084 451.862 441.461C453.359 440.837 454.718 439.923 455.86 438.772C457.008 437.627 457.919 436.267 458.54 434.769C459.162 433.271 459.482 431.666 459.482 430.045C459.482 428.423 459.162 426.817 458.54 425.32C457.919 423.822 457.008 422.462 455.86 421.317C424.82 390.267 374.292 390.267 343.232 421.317Z" fill="black"/>
<path d="M489.068 400.464C491.509 400.463 493.895 399.739 495.924 398.382C497.954 397.025 499.536 395.097 500.47 392.842C501.404 390.587 501.648 388.105 501.172 385.711C500.696 383.316 499.521 381.117 497.796 379.39C471.554 353.149 436.663 338.693 399.556 338.693C362.449 338.693 327.557 353.149 301.316 379.39C299.094 381.724 297.872 384.834 297.911 388.056C297.95 391.278 299.248 394.357 301.526 396.635C303.805 398.914 306.884 400.211 310.106 400.251C313.328 400.29 316.438 399.068 318.771 396.846C329.356 386.204 341.946 377.768 355.812 372.024C369.679 366.281 384.547 363.345 399.556 363.386C430.064 363.386 458.753 375.278 480.34 396.846C482.749 399.265 485.913 400.464 489.068 400.464Z" fill="black"/>
<path d="M531.294 358.24C533.738 358.246 536.129 357.526 538.163 356.17C540.197 354.814 541.782 352.884 542.717 350.625C543.651 348.366 543.893 345.88 543.411 343.484C542.929 341.087 541.746 338.888 540.012 337.166C462.565 259.72 336.537 259.72 259.09 337.166C257.942 338.311 257.032 339.671 256.41 341.169C255.789 342.666 255.469 344.272 255.469 345.893C255.469 347.515 255.789 349.12 256.41 350.618C257.032 352.116 257.942 353.476 259.09 354.621C260.235 355.769 261.596 356.68 263.093 357.301C264.591 357.923 266.197 358.243 267.818 358.243C269.44 358.243 271.045 357.923 272.543 357.301C274.04 356.68 275.401 355.769 276.546 354.621C344.374 286.793 454.738 286.802 522.556 354.621C524.975 357.04 528.13 358.24 531.294 358.24Z" fill="black"/>
</svg>
