<svg width="800" height="800" viewBox="0 0 800 800" fill="none" xmlns="http://www.w3.org/2000/svg">
<path d="M567.069 236.168H525.302C518.895 236.168 513.7 230.975 513.7 224.566V182.799C513.7 176.39 518.895 171.196 525.302 171.196C531.71 171.196 536.905 176.39 536.905 182.799V212.965H567.071C573.478 212.965 578.673 218.158 578.673 224.567C578.672 230.973 573.477 236.168 567.069 236.168Z" fill="#62AF62"/>
<path d="M537.037 266.201H495.27C488.863 266.201 483.668 261.008 483.668 254.599V212.832C483.668 206.423 488.863 201.229 495.27 201.229C501.678 201.229 506.873 206.423 506.873 212.832V242.998H537.039C543.446 242.998 548.641 248.191 548.641 254.6C548.64 261.006 543.445 266.201 537.037 266.201Z" fill="#62AF62"/>
<path d="M466.386 295.083C463.417 295.083 460.447 293.951 458.182 291.686C453.652 287.152 453.652 279.808 458.182 275.278L551.604 181.853C556.135 177.324 563.482 177.324 568.011 181.853C572.541 186.386 572.541 193.73 568.011 198.261L474.589 291.686C472.324 293.951 469.354 295.083 466.386 295.083Z" fill="#519351"/>
<path d="M752.836 491.279H711.069C704.661 491.279 699.466 486.085 699.466 479.677V437.91C699.466 431.501 704.661 426.308 711.069 426.308C717.476 426.308 722.671 431.501 722.671 437.91V468.075H752.837C759.245 468.075 764.44 473.268 764.44 479.677C764.437 486.086 759.243 491.279 752.836 491.279Z" fill="#62AF62"/>
<path d="M722.804 521.313H681.037C674.63 521.313 669.435 516.119 669.435 509.71V467.943C669.435 461.534 674.63 456.341 681.037 456.341C687.445 456.341 692.64 461.534 692.64 467.943V498.109H722.804C729.212 498.109 734.407 503.303 734.407 509.712C734.407 516.118 729.212 521.313 722.804 521.313Z" fill="#62AF62"/>
<path d="M652.15 550.195C649.182 550.195 646.212 549.062 643.947 546.797C639.417 542.264 639.417 534.919 643.947 530.389L737.369 436.964C741.901 432.435 749.247 432.435 753.776 436.964C758.306 441.497 758.306 448.842 753.776 453.372L660.354 546.797C658.09 549.062 655.12 550.195 652.15 550.195Z" fill="#519351"/>
<path d="M95.6391 427.771C116.783 406.741 151.185 406.739 172.329 427.775C177.14 432.56 177.142 440.325 172.329 445.111L113.07 504.064C108.256 508.853 100.452 508.853 95.6391 504.062C74.498 483.031 74.4965 448.805 95.6391 427.771Z" fill="#FFE060"/>
<path d="M121.105 595.056H295.682L327.623 563.115C345.747 544.992 345.747 515.606 327.623 497.484L241.209 411.07C223.085 392.947 193.701 392.947 175.579 411.07L89.1636 497.484C71.0412 515.606 71.0412 544.992 89.1636 563.115L121.105 595.056Z" fill="#DDB690"/>
<path d="M158.119 473.064H156.572C150.165 473.064 144.97 478.258 144.97 484.667C144.97 491.076 150.165 496.269 156.572 496.269H158.119C164.527 496.269 169.722 491.076 169.722 484.667C169.72 478.258 164.527 473.064 158.119 473.064Z" fill="#AF805A"/>
<path d="M250.947 459.142L249.398 459.141C249.395 459.141 249.391 459.141 249.388 459.141C242.985 459.141 237.791 464.328 237.785 470.731C237.779 477.139 242.968 482.338 249.376 482.344L250.924 482.346C250.929 482.346 250.932 482.346 250.935 482.346C257.338 482.346 262.531 477.158 262.537 470.755C262.545 464.347 257.354 459.148 250.947 459.142Z" fill="#AF805A"/>
<path d="M209.167 435.937H207.62C201.213 435.937 196.018 441.13 196.018 447.539C196.018 453.948 201.213 459.141 207.62 459.141H209.167C215.575 459.141 220.77 453.948 220.77 447.539C220.77 441.131 215.575 435.937 209.167 435.937Z" fill="#AF805A"/>
<path d="M204.526 486.986H202.98C196.573 486.986 191.378 492.18 191.378 498.589C191.378 504.998 196.573 510.191 202.98 510.191H204.526C210.933 510.191 216.128 504.998 216.128 498.589C216.127 492.18 210.933 486.986 204.526 486.986Z" fill="#AF805A"/>
<path d="M245.448 152.953C243.901 143.876 246.607 134.215 253.613 127.209C265.091 115.731 283.7 115.731 295.178 127.209C306.656 138.687 306.656 157.298 295.178 168.776C294.25 169.702 293.274 170.548 292.259 171.327L459.803 338.87C467.656 346.723 467.656 359.455 459.803 367.31C451.95 375.161 439.215 375.162 431.364 367.31L263.821 199.765C263.043 200.778 262.196 201.757 261.273 202.685C249.793 214.163 231.184 214.163 219.704 202.685C208.226 191.207 208.227 172.596 219.705 161.118C226.71 154.112 236.373 151.406 245.448 152.953Z" fill="#EFDFBB"/>
<path d="M337.293 244.796C291.985 290.106 298.841 370.422 352.606 424.191C406.373 477.954 475.75 473.874 521.059 428.566C566.368 383.256 570.451 313.875 516.686 260.112C462.918 206.343 382.603 199.488 337.293 244.796Z" fill="#D3A179"/>
<path opacity="0.1" d="M400.777 424.189C347.01 370.42 340.156 290.105 385.465 244.795C399.913 230.347 417.93 221.227 437.502 217.218C400.326 210.117 363.121 218.968 337.295 244.795C291.986 290.105 298.843 370.42 352.607 424.189C386.877 458.458 427.482 469.193 464.162 460.766C442.239 455.772 420.462 443.874 400.777 424.189Z" fill="black"/>
<path d="M510.296 338.317L509.201 337.223C504.666 332.692 497.32 332.7 492.793 337.234C488.266 341.768 488.271 349.114 492.803 353.642L493.899 354.736C496.164 356.999 499.131 358.127 502.098 358.127C505.069 358.127 508.04 356.993 510.307 354.724C514.836 350.191 514.83 342.843 510.296 338.317Z" fill="#B2754B"/>
<path d="M490.618 379.891C486.09 375.357 478.744 375.352 474.21 379.881C469.675 384.408 469.671 391.756 474.199 396.287L475.293 397.383C477.56 399.653 480.531 400.787 483.503 400.787C486.469 400.787 489.436 399.656 491.701 397.395C496.236 392.868 496.24 385.52 491.712 380.988L490.618 379.891Z" fill="#B2754B"/>
<path d="M479.127 302.34C482.098 302.34 485.071 301.206 487.336 298.936C491.863 294.402 491.857 287.055 487.326 282.528L486.232 281.436C481.697 276.907 474.351 276.911 469.824 281.446C465.296 285.981 465.302 293.327 469.834 297.854L470.928 298.947C473.193 301.209 476.158 302.34 479.127 302.34Z" fill="#B2754B"/>
<path d="M455.609 318.63C451.079 314.101 443.731 314.101 439.201 318.63C434.671 323.163 434.671 330.508 439.201 335.038L440.295 336.132C442.56 338.397 445.53 339.53 448.498 339.53C451.467 339.53 454.436 338.397 456.701 336.132C461.232 331.599 461.232 324.254 456.701 319.724L455.609 318.63Z" fill="#B2754B"/>
<path d="M439.201 262.844L438.107 261.75C433.575 257.221 426.229 257.221 421.699 261.75C417.169 266.283 417.169 273.628 421.699 278.158L422.793 279.252C425.058 281.517 428.028 282.65 430.996 282.65C433.965 282.65 436.934 281.517 439.2 279.252C443.733 274.72 443.733 267.376 439.201 262.844Z" fill="#B2754B"/>
<path d="M585.436 351.443C615.259 351.523 639.586 375.847 639.663 405.674C639.682 412.46 634.19 417.951 627.403 417.933L543.816 417.717C537.025 417.698 531.507 412.18 531.491 405.391C531.411 375.568 555.611 351.364 585.436 351.443Z" fill="#FFE060"/>
<path d="M587.66 606.071C645.379 606.071 692.17 559.28 692.17 501.561C692.17 443.841 645.379 397.05 587.66 397.05C529.94 397.05 483.149 443.841 483.149 501.561C483.149 559.28 529.94 606.071 587.66 606.071Z" fill="#D3A179"/>
<path d="M634.919 455.059H633.371C626.964 455.059 621.769 460.252 621.769 466.661C621.769 473.07 626.964 478.263 633.371 478.263H634.919C641.326 478.263 646.521 473.07 646.521 466.661C646.521 460.254 641.326 455.059 634.919 455.059Z" fill="#AF805A"/>
<path d="M599.34 417.932H597.793C591.385 417.932 586.19 423.125 586.19 429.534C586.19 435.943 591.385 441.137 597.793 441.137H599.34C605.747 441.137 610.942 435.943 610.942 429.534C610.941 423.127 605.747 417.932 599.34 417.932Z" fill="#AF805A"/>
<path d="M224.98 329.758H183.213C176.806 329.758 171.611 324.564 171.611 318.155C171.611 311.746 176.806 306.553 183.213 306.553H213.379V276.387C213.379 269.978 218.574 264.784 224.982 264.784C231.389 264.784 236.584 269.978 236.584 276.387V318.154C236.583 324.564 231.388 329.758 224.98 329.758Z" fill="#62AF62"/>
<path d="M255.012 359.789H213.245C206.837 359.789 201.642 354.595 201.642 348.186C201.642 341.777 206.837 336.584 213.245 336.584H243.411V306.418C243.411 300.009 248.606 294.815 255.013 294.815C261.42 294.815 266.615 300.009 266.615 306.418V348.185C266.614 354.594 261.42 359.789 255.012 359.789Z" fill="#62AF62"/>
<path d="M283.896 388.672C280.927 388.672 277.958 387.54 275.692 385.274L182.27 291.852C177.739 287.319 177.739 279.975 182.27 275.444C186.802 270.916 194.148 270.916 198.677 275.444L292.099 368.866C296.631 373.4 296.631 380.744 292.099 385.274C289.835 387.54 286.865 388.672 283.896 388.672Z" fill="#519351"/>
<path d="M341.866 522.535C399.586 522.535 446.377 475.744 446.377 418.024C446.377 360.305 399.586 313.514 341.866 313.514C284.147 313.514 237.355 360.305 237.355 418.024C237.355 475.744 284.147 522.535 341.866 522.535Z" fill="#BC8C6C"/>
<path opacity="0.1" d="M373.015 506.281C315.298 506.281 268.51 459.492 268.51 401.776C268.51 367.793 284.741 337.611 309.861 318.526C267.801 332.043 237.357 371.469 237.357 418.02C237.357 475.734 284.144 522.525 341.862 522.525C365.595 522.525 387.471 514.601 405.014 501.271C394.928 504.51 384.179 506.281 373.015 506.281Z" fill="black"/>
<path d="M296.141 376.166H294.594C288.186 376.166 282.991 381.359 282.991 387.768C282.991 394.177 288.186 399.371 294.594 399.371H296.141C302.548 399.371 307.743 394.177 307.743 387.768C307.742 381.359 302.548 376.166 296.141 376.166Z" fill="#996B48"/>
<path d="M373.5 362.244L371.951 362.242C371.947 362.242 371.944 362.242 371.941 362.242C365.538 362.242 360.344 367.431 360.338 373.833C360.332 380.24 365.521 385.44 371.929 385.446L373.478 385.447C373.481 385.447 373.485 385.447 373.488 385.447C379.891 385.447 385.084 380.258 385.09 373.856C385.095 367.449 379.907 362.248 373.5 362.244Z" fill="#996B48"/>
<path d="M331.719 339.04H330.172C323.765 339.04 318.57 344.234 318.57 350.642C318.57 357.051 323.765 362.245 330.172 362.245H331.719C338.127 362.245 343.322 357.051 343.322 350.642C343.322 344.232 338.127 339.04 331.719 339.04Z" fill="#996B48"/>
<path d="M666.71 291.061C659.704 284.055 650.041 281.349 640.964 282.896C642.511 273.821 639.805 264.159 632.799 257.152C621.321 245.674 602.712 245.673 591.234 257.152C579.756 268.63 579.756 287.24 591.234 298.718C592.162 299.646 593.139 300.49 594.153 301.269L533.414 362.008C538.994 365.669 544.269 369.888 549.12 374.74C553.973 379.594 558.191 384.868 561.854 390.448L622.593 329.708C623.37 330.72 624.217 331.698 625.144 332.626C636.62 344.104 655.23 344.104 666.708 332.626C678.188 321.15 678.186 302.539 666.71 291.061Z" fill="#EFDFBB"/>
<path d="M549.119 374.741C594.428 420.051 587.571 500.367 533.806 554.134C480.039 607.899 410.662 603.819 365.353 558.509C320.044 513.199 315.963 443.822 369.729 390.055C423.495 336.288 503.81 329.432 549.119 374.741Z" fill="#DDB690"/>
<path opacity="0.1" d="M397.837 558.508C352.529 513.199 348.447 443.821 402.213 390.055C427.516 364.752 458.701 349.844 489.351 345.869C449.349 340.505 404.113 355.668 369.727 390.055C315.96 443.822 320.043 513.197 365.351 558.508C392.077 585.234 427.174 597.6 462.504 592.227C438.742 588.574 416.294 576.962 397.837 558.508Z" fill="black"/>
<path d="M383.947 488.07C380.976 488.07 378.005 486.936 375.738 484.667C371.211 480.132 371.217 472.786 375.748 468.26L376.844 467.166C381.38 462.639 388.725 462.643 393.252 467.176C397.779 471.711 397.773 479.057 393.242 483.584L392.146 484.678C389.88 486.939 386.913 488.07 383.947 488.07Z" fill="#AF805A"/>
<path d="M504.098 409.746C501.13 409.746 498.16 408.613 495.895 406.348C491.365 401.815 491.365 394.47 495.895 389.94L496.989 388.846C501.521 384.317 508.867 384.317 513.395 388.846C517.926 393.379 517.926 400.724 513.395 405.254L512.301 406.348C510.038 408.612 507.066 409.746 504.098 409.746Z" fill="#AF805A"/>
<path d="M406.919 432.284C403.951 432.284 400.981 431.151 398.716 428.886C394.184 424.353 394.184 417.008 398.716 412.478L399.81 411.384C404.342 406.855 411.688 406.855 416.217 411.384C420.749 415.917 420.749 423.262 416.217 427.792L415.123 428.886C412.856 431.15 409.888 432.284 406.919 432.284Z" fill="#AF805A"/>
<path d="M437.548 469.475C434.579 469.475 431.61 468.342 429.344 466.077C424.814 461.544 424.814 454.2 429.344 449.669L430.438 448.575C434.969 444.047 442.316 444.047 446.845 448.575C451.375 453.108 451.375 460.453 446.845 464.983L445.751 466.077C443.484 468.342 440.516 469.475 437.548 469.475Z" fill="#AF805A"/>
<path d="M455.05 412.595C452.082 412.595 449.112 411.463 446.847 409.198C442.317 404.664 442.317 397.32 446.847 392.789L447.941 391.695C452.471 387.167 459.819 387.167 464.349 391.695C468.879 396.229 468.879 403.573 464.349 408.103L463.255 409.198C460.988 411.463 458.018 412.595 455.05 412.595Z" fill="#AF805A"/>
<path d="M590.84 549.044C569.696 570.077 535.294 570.077 514.15 549.043C509.337 544.255 509.337 536.493 514.15 531.706L573.409 472.753C578.224 467.963 586.027 467.965 590.84 472.753C611.981 493.786 611.984 528.01 590.84 549.044Z" fill="#FFE060"/>
<path d="M310.081 473.621C339.903 473.701 364.23 498.025 364.307 527.852C364.327 534.639 358.834 540.13 352.048 540.112L268.46 539.896C261.669 539.877 256.152 534.359 256.135 527.57C256.056 497.747 280.257 473.546 310.081 473.621Z" fill="#FFE060"/>
<path d="M676.128 665.441C676.128 673.985 669.202 680.911 660.658 680.911H139.341C130.797 680.911 123.872 673.985 123.872 665.441V580.36C123.872 571.818 130.797 564.891 139.341 564.891H660.66C669.204 564.891 676.129 571.818 676.129 580.36V665.441H676.128Z" fill="#C14616"/>
<path opacity="0.1" d="M201.991 665.441V580.36C201.991 571.818 208.917 564.891 217.461 564.891H139.341C130.797 564.891 123.872 571.818 123.872 580.36V665.441C123.872 673.985 130.797 680.911 139.341 680.911H217.461C208.917 680.911 201.991 673.986 201.991 665.441Z" fill="black"/>
<path d="M136.383 639.975C79.1569 639.975 32.6021 593.607 32.6021 536.613C32.6021 528.279 39.3856 521.522 47.7532 521.522H752.248C760.615 521.522 767.399 528.279 767.399 536.613C767.399 593.608 720.844 639.975 663.619 639.975H136.383Z" fill="#EF645E"/>
<path opacity="0.1" d="M110.722 536.611C110.722 528.277 117.506 521.521 125.874 521.521H47.7522C39.3846 521.521 32.6011 528.277 32.6011 536.611C32.6011 593.606 79.1559 639.973 136.382 639.973H214.502C157.277 639.974 110.722 593.606 110.722 536.611Z" fill="black"/>
<path d="M779 535.782C779 521.063 766.999 509.089 752.248 509.089H703.48C703.647 506.598 703.76 504.09 703.76 501.552C703.76 460.992 682.839 425.246 651.239 404.478C650.768 381.155 638.088 360.729 619.346 349.363L622.922 345.788C629.655 350.373 637.6 352.839 645.927 352.839C656.878 352.839 667.171 348.574 674.913 340.833C690.897 324.849 690.899 298.842 674.914 282.856C668.739 276.682 660.931 272.722 652.457 271.381C651.098 262.982 647.149 255.094 641.004 248.947C633.261 241.204 622.966 236.941 612.016 236.941C601.065 236.941 590.772 241.206 583.03 248.947C568.916 263.062 567.265 284.994 578.078 300.935L563.299 315.715C557.06 292.791 544.11 271.129 524.889 251.907C493.956 220.974 453.177 203.233 413.003 203.233C391.949 203.233 372.08 208.202 354.84 217.496L344.81 207.466C340.278 202.937 332.932 202.937 328.402 207.466C323.87 211.999 323.87 219.344 328.402 223.874L335.366 230.837C333.21 232.678 331.102 234.579 329.09 236.593C327.066 238.618 325.17 240.725 323.334 242.87L272.025 191.561C265.4 184.939 258.349 189.185 253.071 194.481C246.135 201.417 234.845 201.418 227.909 194.481C220.973 187.546 220.974 176.259 227.91 169.322C231.97 165.261 237.797 163.422 243.5 164.39C247.213 165.02 250.992 163.816 253.654 161.157C256.315 158.497 257.52 154.713 256.888 151.004C255.916 145.3 257.758 139.471 261.819 135.412C268.755 128.476 280.041 128.476 286.978 135.412C290.339 138.772 292.188 143.239 292.188 147.991C292.188 152.744 290.337 157.212 286.991 160.559C281.688 165.838 277.428 172.897 284.059 179.531L305.2 200.672C309.731 205.201 317.077 205.201 321.608 200.672C326.139 196.139 326.139 188.794 321.608 184.264L308.343 171.001C312.928 164.266 315.393 156.32 315.393 147.994C315.393 137.043 311.129 126.749 303.386 119.007C295.643 111.264 285.348 107 274.4 107C263.449 107 253.155 111.265 245.414 119.007C239.263 125.159 235.314 133.055 233.957 141.461C225.55 142.817 217.655 146.767 211.504 152.915C203.761 160.66 199.497 170.953 199.497 181.903C199.496 192.852 203.761 203.148 211.504 210.89C225.614 225.001 247.538 226.647 263.49 215.841L309.996 262.346C301.95 277.304 297.365 293.967 296.173 311.299C263.243 325.452 238.139 354.413 229.262 389.752C222.692 387.22 215.652 385.879 208.398 385.879C192.902 385.879 178.334 391.913 167.378 402.869L163.116 407.131C154.173 402.734 144.265 400.399 133.988 400.399C116.401 400.399 99.8779 407.199 87.4627 419.549C75.0312 431.915 68.1855 448.383 68.1855 465.92C68.1855 476.489 70.6934 486.657 75.3939 495.783C72.3116 499.943 69.8703 504.426 68.0345 509.092H47.7521C33.0007 509.089 21 521.063 21 535.782C21 590.934 60.185 637.122 112.269 648.203V665.443C112.269 680.369 124.414 692.515 139.341 692.515H660.66C675.586 692.515 687.732 680.371 687.732 665.443V648.203C739.813 637.122 779 590.936 779 535.782ZM680.555 501.552C680.555 504.093 680.416 506.599 680.21 509.089H618.254C617.799 492.234 611.023 476.467 599.021 464.526C596.504 462.022 593.516 460.173 590.27 459.002C591.354 441.613 589.165 424.528 583.652 408.74C584.977 408.681 586.311 408.65 587.651 408.65C638.878 408.651 680.555 450.327 680.555 501.552ZM342.278 470.534C344.164 444.673 356.375 419.816 377.934 398.256C404.547 371.644 439.346 356.381 473.411 356.381C499.813 356.381 523.786 365.816 540.915 382.945C561.706 403.736 570.064 432.978 566.735 463.164C566.218 463.599 565.709 464.045 565.225 464.527L520.432 509.091H373.115C368.17 492.64 356.966 478.851 342.278 470.534ZM348.275 509.089H271.928C273.954 504.897 276.674 501.021 280.06 497.626C288.038 489.629 298.647 485.223 310.048 485.223C326.77 485.27 341.289 495.006 348.275 509.089ZM581.59 480.977C581.645 480.923 581.806 480.762 582.124 480.762C582.441 480.762 582.604 480.923 582.656 480.977C590.248 488.529 594.605 498.454 595.05 509.089H553.332L581.59 480.977ZM625.702 391.882C613.774 387.732 600.978 385.447 587.654 385.447C586.148 385.447 584.654 385.487 583.165 385.544L602.165 366.545C613.142 371.29 621.758 380.509 625.702 391.882ZM602.355 309.475C607.192 304.638 606.66 296.245 601.215 292.067C600.566 291.57 599.968 291.047 599.435 290.514C592.499 283.58 592.499 272.293 599.435 265.355C602.796 261.995 607.263 260.146 612.013 260.146C616.766 260.146 621.234 261.996 624.593 265.357C628.259 269.021 629.895 273.93 629.747 279.044C629.612 283.627 629.132 287.474 632.759 291.101C636.268 294.609 639.953 294.352 644.425 294.14C649.699 293.891 654.715 295.476 658.505 299.264C665.441 306.2 665.441 317.487 658.505 324.423C655.144 327.785 650.677 329.634 645.925 329.634C641.174 329.634 636.706 327.784 633.347 324.425C628.074 319.135 621.095 314.804 614.388 321.505L563.08 372.815C561.244 370.67 559.349 368.562 557.325 366.537C555.313 364.523 553.202 362.624 551.049 360.78L602.355 309.475ZM345.497 253.001C362.626 235.872 386.6 226.438 413.003 226.438C447.069 226.438 481.87 241.702 508.483 268.315C528.594 288.424 540.566 311.408 543.617 335.395L531.572 347.44C514.334 338.144 494.463 333.176 473.409 333.176C458.237 333.176 442.981 335.71 428.198 340.525C406.932 316.845 376.117 301.91 341.861 301.91C334.471 301.91 327.25 302.634 320.237 303.959C323.23 284.687 331.558 266.939 345.497 253.001ZM341.862 325.117C366.297 325.117 388.538 334.625 405.14 350.103C389.375 358.117 374.573 368.805 361.526 381.849C337.585 405.791 323.358 433.514 319.757 462.757C316.607 462.281 313.387 462.028 310.11 462.019C310.1 462.019 309.948 462.019 309.939 462.019C295.054 462.019 280.942 466.973 269.448 476.076C256.655 460.16 248.96 439.981 248.96 418.018C248.958 366.791 290.635 325.117 341.862 325.117ZM183.783 419.274C190.357 412.701 199.096 409.079 208.393 409.079C214.625 409.079 220.588 410.74 225.835 413.793C225.784 415.195 225.755 416.603 225.755 418.02C225.755 446.907 236.386 473.341 253.909 493.673C250.988 498.504 248.739 503.686 247.164 509.091H94.3942C95.2988 507.909 96.2863 506.772 97.367 505.69L183.783 419.274ZM103.823 435.996C111.861 428.003 122.572 423.598 133.985 423.598C137.818 423.598 141.563 424.115 145.161 425.08L92.9508 477.29C91.9293 473.634 91.3874 469.818 91.3874 465.916C91.3859 454.602 95.8022 443.975 103.823 435.996ZM663.618 627.542H553.147C546.74 627.542 541.545 632.735 541.545 639.144C541.545 645.553 546.74 650.747 553.147 650.747H663.618C663.923 650.747 664.224 650.724 664.526 650.723V665.442C664.526 667.575 662.791 669.309 660.659 669.309H139.341C137.209 669.309 135.474 667.575 135.474 665.442V650.723C135.779 650.724 136.08 650.747 136.383 650.747H492.817C499.224 650.747 504.419 645.553 504.419 639.144C504.419 632.735 499.224 627.542 492.817 627.542H136.383C85.5558 627.542 44.2049 586.379 44.2049 535.782C44.2049 533.859 45.7964 532.294 47.7535 532.294H752.248C754.205 532.294 755.797 533.859 755.797 535.782C755.797 586.379 714.444 627.542 663.618 627.542Z" fill="black"/>
</svg>
