<svg width="800" height="800" viewBox="0 0 800 800" fill="none" xmlns="http://www.w3.org/2000/svg">
<path d="M399.5 31C265.018 31 156 141.063 156 276.833C156 320.5 167.615 361.339 187.387 396.862C190.671 402.762 194.114 408.569 197.852 414.162L399.5 768.5L601.148 414.162C604.253 409.522 606.932 404.605 609.701 399.75L611.619 396.862C631.373 361.339 643 320.5 643 276.833C643 141.063 533.973 31 399.5 31ZM399.5 153.917C466.736 153.917 521.25 208.95 521.25 276.833C521.25 344.714 466.736 399.75 399.5 399.75C332.261 399.75 277.75 344.714 277.75 276.833C277.75 208.95 332.261 153.917 399.5 153.917Z" fill="#E74C3C"/>
<path d="M343 350V235.6L316 252.2V222.2L343 206H370.8V350H343ZM384.82 349.8V326.2L445.22 272.6C449.754 268.6 452.954 264.833 454.82 261.3C456.687 257.767 457.62 254.467 457.62 251.4C457.62 247 456.72 243.1 454.92 239.7C453.12 236.233 450.587 233.533 447.32 231.6C444.054 229.6 440.22 228.6 435.82 228.6C431.22 228.6 427.154 229.667 423.62 231.8C420.154 233.867 417.454 236.633 415.52 240.1C413.587 243.5 412.687 247.2 412.82 251.2H384.82C384.82 241.333 386.987 232.8 391.32 225.6C395.654 218.4 401.687 212.833 409.42 208.9C417.154 204.967 426.154 203 436.42 203C445.82 203 454.22 205.067 461.62 209.2C469.087 213.267 474.954 218.967 479.22 226.3C483.487 233.633 485.62 242.133 485.62 251.8C485.62 258.933 484.62 264.867 482.62 269.6C480.62 274.267 477.654 278.6 473.72 282.6C469.787 286.533 464.954 291 459.22 296L420.22 330.2L418.02 324.2H485.62V349.8H384.82Z" fill="black"/>
</svg>
