<svg width="800" height="800" viewBox="0 0 800 800" fill="none" xmlns="http://www.w3.org/2000/svg">
<path d="M399.5 31C265.018 31 156 141.063 156 276.833C156 320.5 167.615 361.339 187.387 396.862C190.671 402.762 194.114 408.569 197.852 414.162L399.5 768.5L601.148 414.162C604.253 409.522 606.932 404.605 609.701 399.75L611.619 396.862C631.373 361.339 643 320.5 643 276.833C643 141.063 533.973 31 399.5 31ZM399.5 153.917C466.736 153.917 521.25 208.95 521.25 276.833C521.25 344.714 466.736 399.75 399.5 399.75C332.261 399.75 277.75 344.714 277.75 276.833C277.75 208.95 332.261 153.917 399.5 153.917Z" fill="#E74C3C"/>
<path d="M400.2 353C390.467 353 381.8 351.033 374.2 347.1C366.667 343.1 360.733 337.633 356.4 330.7C352.133 323.7 350 315.733 350 306.8C350 299.2 351.7 292.033 355.1 285.3C358.567 278.567 363.533 273.067 370 268.8L369.4 277.2C364.533 272.467 360.7 267.467 357.9 262.2C355.167 256.933 353.8 251 353.8 244.4C353.8 236.067 355.767 228.8 359.7 222.6C363.7 216.4 369.167 211.6 376.1 208.2C383.1 204.733 391.133 203 400.2 203C409.267 203 417.267 204.733 424.2 208.2C431.2 211.6 436.667 216.4 440.6 222.6C444.6 228.8 446.6 236.067 446.6 244.4C446.6 251 445.3 256.933 442.7 262.2C440.1 267.4 436.133 272.467 430.8 277.4V269C437.133 273 442 278.4 445.4 285.2C448.867 292 450.6 299.2 450.6 306.8C450.6 315.733 448.433 323.7 444.1 330.7C439.767 337.633 433.8 343.1 426.2 347.1C418.6 351.033 409.933 353 400.2 353ZM400.2 327.4C406.6 327.4 411.8 325.667 415.8 322.2C419.8 318.733 421.8 313.6 421.8 306.8C421.8 300.067 419.8 294.933 415.8 291.4C411.8 287.8 406.6 286 400.2 286C393.8 286 388.633 287.8 384.7 291.4C380.767 294.933 378.8 300.067 378.8 306.8C378.8 313.6 380.767 318.733 384.7 322.2C388.633 325.667 393.8 327.4 400.2 327.4ZM400.2 260.2C405.4 260.2 409.633 258.933 412.9 256.4C416.167 253.8 417.8 249.8 417.8 244.4C417.8 239 416.167 235 412.9 232.4C409.633 229.733 405.4 228.4 400.2 228.4C395 228.4 390.767 229.733 387.5 232.4C384.233 235 382.6 239 382.6 244.4C382.6 249.8 384.233 253.8 387.5 256.4C390.767 258.933 395 260.2 400.2 260.2Z" fill="black"/>
</svg>
