<svg width="800" height="800" viewBox="0 0 800 800" fill="none" xmlns="http://www.w3.org/2000/svg">
<path d="M267 99.668L533.667 133.001V766.335L267 733.001V99.668Z" fill="#ECF0F1"/>
<path d="M67 133.001L267 99.668V733.001L67 766.335V133.001Z" fill="#BDC3C7"/>
<path d="M533.667 133.001L733.666 99.668V733.001L533.667 766.335V133.001Z" fill="#BDC3C7"/>
<path d="M100.333 166.333L267 133V699.667L100.333 733V166.333Z" fill="#27AE60"/>
<path d="M267 133L533.667 166.333V733L267 699.667V133Z" fill="#2ECC71"/>
<path d="M433.667 66.332C378.433 66.332 333.667 111.105 333.667 166.332C333.667 221.559 378.433 266.332 433.667 266.332C488.9 266.332 533.666 221.559 533.666 166.332C533.666 111.105 488.9 66.332 433.667 66.332ZM433.667 132.999C452.066 132.999 467 147.922 467 166.332C467 184.742 452.066 199.665 433.667 199.665C415.267 199.665 400.333 184.742 400.333 166.332C400.333 147.922 415.267 132.999 433.667 132.999Z" fill="#C0392B"/>
<path d="M700.333 699.667L533.667 733V166.333L700.333 133V699.667Z" fill="#27AE60"/>
<path d="M189.917 146.336L112.833 163.003L267 326.333V229.669L189.917 146.336Z" fill="#F39C12"/>
<path d="M700.333 632.999L533.667 666.332V466.332L700.333 366.332V632.999Z" fill="#F39C12"/>
<path d="M700.333 699.667L533.667 733V533L700.333 433V699.667Z" fill="#2980B9"/>
<path d="M267 499.665L533.667 466.332V666.332L267 632.999V499.665Z" fill="#F1C40F"/>
<path d="M267 566.333L533.667 533V733L267 699.667V566.333Z" fill="#3498DB"/>
<path d="M100.333 599.668L267 499.668V633.001L100.333 666.335V599.668Z" fill="#F39C12"/>
<path d="M100.333 666.332L267 566.332V699.665L100.333 732.999V666.332Z" fill="#2980B9"/>
<path d="M267 326.359V229.742L400.333 518.399H351.367L267 326.359Z" fill="#F1C40F"/>
<path d="M433.667 33C360.033 33 300.333 93 300.333 166.333C300.333 189.667 306.694 209.667 317.52 229.667C319.317 233.001 321.203 236.332 323.25 239.665L433.667 433L544.067 239.665C545.767 236.332 547.233 233 548.767 233L549.8 229.667C560.633 209.667 567 189.667 567 166.333C567 93 507.3 33 433.667 33ZM433.667 99.6667C470.5 99.6667 500.333 129.667 500.333 166.333C500.333 203 470.5 233 433.667 233C396.833 233 367 203 367 166.333C367 129.667 396.833 99.6667 433.667 99.6667Z" fill="#E74C3C"/>
</svg>
