<svg width="800" height="800" viewBox="0 0 800 800" fill="none" xmlns="http://www.w3.org/2000/svg">
<path d="M399.5 31C265.018 31 156 141.063 156 276.833C156 320.5 167.615 361.339 187.387 396.862C190.671 402.762 194.114 408.569 197.852 414.162L399.5 768.5L601.148 414.162C604.253 409.522 606.932 404.605 609.701 399.75L611.619 396.862C631.373 361.339 643 320.5 643 276.833C643 141.063 533.973 31 399.5 31ZM399.5 153.917C466.736 153.917 521.25 208.95 521.25 276.833C521.25 344.714 466.736 399.75 399.5 399.75C332.261 399.75 277.75 344.714 277.75 276.833C277.75 208.95 332.261 153.917 399.5 153.917Z" fill="#E74C3C"/>
<path d="M398.2 203.2C407.733 203.2 416.267 205.433 423.8 209.9C431.4 214.367 437.4 220.6 441.8 228.6C446.2 236.533 448.4 245.733 448.4 256.2V298C448.4 309.333 446.2 319.133 441.8 327.4C437.4 335.6 431.2 341.933 423.2 346.4C415.2 350.8 405.8 353 395 353C388 353 381.333 351.967 375 349.9C368.733 347.767 362.933 344.267 357.6 339.4L377 320C379.4 322.4 382.167 324.267 385.3 325.6C388.5 326.933 391.733 327.6 395 327.6C400.2 327.6 404.7 326.4 408.5 324C412.367 321.533 415.333 318.367 417.4 314.5C419.533 310.567 420.6 306.4 420.6 302V280.6L425.2 285.6C421.133 289.8 416.367 293.033 410.9 295.3C405.433 297.5 399.8 298.6 394 298.6C384.933 298.6 376.933 296.567 370 292.5C363.133 288.433 357.733 282.867 353.8 275.8C349.933 268.733 348 260.667 348 251.6C348 242.533 350.3 234.367 354.9 227.1C359.5 219.767 365.6 213.967 373.2 209.7C380.8 205.367 389.133 203.2 398.2 203.2ZM398.2 229.2C394.067 229.2 390.267 230.2 386.8 232.2C383.4 234.2 380.667 236.9 378.6 240.3C376.6 243.7 375.6 247.467 375.6 251.6C375.6 255.733 376.6 259.533 378.6 263C380.6 266.4 383.3 269.133 386.7 271.2C390.1 273.2 393.867 274.2 398 274.2C402.133 274.2 405.9 273.2 409.3 271.2C412.767 269.133 415.5 266.4 417.5 263C419.567 259.533 420.6 255.733 420.6 251.6C420.6 247.6 419.6 243.9 417.6 240.5C415.6 237.1 412.9 234.367 409.5 232.3C406.1 230.233 402.333 229.2 398.2 229.2Z" fill="black"/>
</svg>
