<svg width="800" height="800" viewBox="0 0 800 800" fill="none" xmlns="http://www.w3.org/2000/svg">
<path d="M399.5 31C265.018 31 156 141.063 156 276.833C156 320.5 167.615 361.339 187.387 396.862C190.671 402.762 194.114 408.569 197.852 414.162L399.5 768.5L601.148 414.162C604.253 409.522 606.932 404.605 609.701 399.75L611.619 396.862C631.373 361.339 643 320.5 643 276.833C643 141.063 533.973 31 399.5 31ZM399.5 153.917C466.736 153.917 521.25 208.95 521.25 276.833C521.25 344.714 466.736 399.75 399.5 399.75C332.261 399.75 277.75 344.714 277.75 276.833C277.75 208.95 332.261 153.917 399.5 153.917Z" fill="#E74C3C"/>
<path d="M338 350V235.6L311 252.2V222.2L338 206H365.8V350H338ZM437.22 353C426.554 353 417.22 350.767 409.22 346.3C401.22 341.833 394.987 335.6 390.52 327.6C386.054 319.6 383.82 310.267 383.82 299.6V256.4C383.82 245.733 386.054 236.4 390.52 228.4C394.987 220.4 401.22 214.167 409.22 209.7C417.22 205.233 426.554 203 437.22 203C447.887 203 457.22 205.233 465.22 209.7C473.22 214.167 479.454 220.4 483.92 228.4C488.387 236.4 490.62 245.733 490.62 256.4V299.6C490.62 310.267 488.387 319.6 483.92 327.6C479.454 335.6 473.22 341.833 465.22 346.3C457.22 350.767 447.887 353 437.22 353ZM437.22 327.2C442.02 327.2 446.354 326.067 450.22 323.8C454.087 321.533 457.154 318.467 459.42 314.6C461.687 310.733 462.82 306.4 462.82 301.6V254.2C462.82 249.4 461.687 245.067 459.42 241.2C457.154 237.333 454.087 234.267 450.22 232C446.354 229.733 442.02 228.6 437.22 228.6C432.42 228.6 428.087 229.733 424.22 232C420.354 234.267 417.287 237.333 415.02 241.2C412.754 245.067 411.62 249.4 411.62 254.2V301.6C411.62 306.4 412.754 310.733 415.02 314.6C417.287 318.467 420.354 321.533 424.22 323.8C428.087 326.067 432.42 327.2 437.22 327.2Z" fill="black"/>
</svg>
