<svg width="800" height="800" viewBox="0 0 800 800" fill="none" xmlns="http://www.w3.org/2000/svg">
<path d="M162.285 283.429H725.714C749.714 283.429 769.143 302.857 769.143 325.714V630.857C769.143 646.857 755.428 660.572 738.286 660.572H30.8569V410.286C31.9998 340.572 90.2855 283.429 162.285 283.429Z" fill="#90CED9"/>
<path d="M739.429 668.572H24V410.286C24 336 85.7143 275.429 162.286 275.429H725.714C754.286 275.429 777.143 298.286 777.143 325.714V630.857C777.143 651.429 760 668.572 739.429 668.572ZM40 652.572H739.429C752 652.572 761.143 643.429 761.143 630.857V325.714C761.143 306.286 745.143 291.429 725.714 291.429H162.286C94.8571 291.429 40 345.143 40 410.286V652.572Z" fill="#141515"/>
<path d="M32 596.571V500.571H153.143C121.143 523.428 83.4286 554.286 32 596.571Z" fill="#7E8495"/>
<path d="M32 604.571C30.8571 604.571 29.7143 604.571 28.5714 603.428C26.2857 602.286 24 598.857 24 596.571V500.571C24 496 27.4286 492.571 32 492.571H153.143C156.571 492.571 160 494.857 161.143 498.286C162.286 501.714 161.143 505.143 157.714 507.428C124.571 530.286 85.7143 562.286 36.5714 603.428C35.4286 604.571 34.2857 604.571 32 604.571ZM40 508.571V579.428C74.2857 550.857 102.857 528 129.143 508.571H40Z" fill="#141515"/>
<path d="M769.143 443.428V630.857C769.143 646.857 755.428 660.571 738.286 660.571H30.8569V596.571C236.571 426.286 222.857 438.857 539.428 438.857C651.428 440 723.428 437.714 769.143 443.428Z" fill="#E9606E"/>
<path d="M739.429 668.571H32C27.4286 668.571 24 665.143 24 660.571V596.571C24 594.286 25.1429 592 27.4286 590.857C205.714 443.429 220.571 432 434.286 432H602.286C680 432 733.714 432 770.286 435.429C774.857 435.429 777.143 438.857 777.143 443.429V630.857C777.143 651.429 760 668.571 739.429 668.571ZM40 652.571H739.429C752 652.571 761.143 643.429 761.143 630.857V450.286C725.714 446.857 674.286 446.857 602.286 446.857H480C228.571 445.714 227.429 445.714 40 600V652.571Z" fill="#141515"/>
<path d="M769.143 524.571V588.571H270.857C253.714 588.571 238.857 573.714 238.857 556.571C238.857 539.428 253.714 524.571 270.857 524.571H769.143Z" fill="#F08FA2"/>
<path d="M769.143 596.571H270.857C249.143 596.571 230.857 578.286 230.857 556.571C230.857 534.857 249.143 516.571 270.857 516.571H769.143C773.714 516.571 777.143 520 777.143 524.571V588.571C777.143 593.143 773.714 596.571 769.143 596.571ZM270.857 533.714C258.286 533.714 246.857 544 246.857 557.714C246.857 570.286 257.143 581.714 270.857 581.714H761.143V533.714H270.857Z" fill="#141515"/>
<path d="M44.5713 660.571H749.714V707.428H44.5713V660.571Z" fill="#7E8495"/>
<path d="M749.714 715.428H44.5713C39.9999 715.428 36.5713 712 36.5713 707.428V660.571C36.5713 656 39.9999 652.571 44.5713 652.571H749.714C754.286 652.571 757.714 656 757.714 660.571V707.428C757.714 710.857 754.286 715.428 749.714 715.428ZM52.5713 698.286H741.714V668.571H52.5713V698.286Z" fill="#141515"/>
<path d="M145.143 747.429C179.429 747.429 206.857 720 206.857 685.714C206.857 651.429 179.429 624 145.143 624C110.857 624 83.4287 651.429 83.4287 685.714C83.4287 720 110.857 747.429 145.143 747.429Z" fill="#A1A69C"/>
<path d="M145.143 755.429C106.286 755.429 75.4287 723.429 75.4287 685.714C75.4287 646.857 107.429 616 145.143 616C184 616 214.857 648 214.857 685.714C214.857 724.571 184 755.429 145.143 755.429ZM145.143 632C115.429 632 91.4287 656 91.4287 685.714C91.4287 715.429 115.429 739.429 145.143 739.429C174.857 739.429 198.857 715.429 198.857 685.714C198.857 656 174.857 632 145.143 632Z" fill="#141515"/>
<path d="M115.429 685.714C115.429 693.595 118.559 701.153 124.132 706.725C129.704 712.298 137.262 715.429 145.143 715.429C153.024 715.429 160.582 712.298 166.154 706.725C171.727 701.153 174.857 693.595 174.857 685.714C174.857 677.834 171.727 670.276 166.154 664.703C160.582 659.131 153.024 656 145.143 656C137.262 656 129.704 659.131 124.132 664.703C118.559 670.276 115.429 677.834 115.429 685.714Z" fill="#DAD9B4"/>
<path d="M145.143 723.429C124.572 723.429 107.429 706.286 107.429 685.714C107.429 665.143 124.572 648 145.143 648C165.714 648 182.857 665.143 182.857 685.714C181.714 706.286 165.714 723.429 145.143 723.429ZM145.143 664C133.714 664 124.572 673.143 124.572 684.571C124.572 696 133.714 705.143 145.143 705.143C156.572 705.143 165.714 696 165.714 684.571C165.714 674.286 156.572 664 145.143 664Z" fill="#141515"/>
<path d="M510.857 747.429C545.143 747.429 572.571 720 572.571 685.714C572.571 651.429 545.143 624 510.857 624C476.571 624 449.143 651.429 449.143 685.714C449.143 720 476.571 747.429 510.857 747.429Z" fill="#A1A69C"/>
<path d="M510.857 755.429C472 755.429 441.143 723.429 441.143 685.714C441.143 646.857 473.143 616 510.857 616C549.715 616 580.572 648 580.572 685.714C581.714 724.571 549.715 755.429 510.857 755.429ZM510.857 632C481.143 632 457.143 656 457.143 685.714C457.143 715.429 481.143 739.429 510.857 739.429C540.572 739.429 564.572 715.429 564.572 685.714C564.572 656 540.572 632 510.857 632Z" fill="#141515"/>
<path d="M665.143 747.429C699.429 747.429 726.857 720 726.857 685.714C726.857 651.429 699.429 624 665.143 624C630.857 624 603.429 651.429 603.429 685.714C603.429 720 632 747.429 665.143 747.429Z" fill="#A1A69C"/>
<path d="M665.143 755.429C626.286 755.429 595.429 723.429 595.429 685.714C595.429 646.857 627.429 616 665.143 616C704 616 734.857 648 734.857 685.714C736 724.571 704 755.429 665.143 755.429ZM665.143 632C635.429 632 611.429 656 611.429 685.714C611.429 715.429 635.429 739.429 665.143 739.429C694.857 739.429 718.857 715.429 718.857 685.714C720 656 694.857 632 665.143 632Z" fill="#141515"/>
<path d="M481.143 685.714C481.143 693.595 484.274 701.153 489.846 706.725C495.419 712.298 502.977 715.429 510.857 715.429C518.738 715.429 526.296 712.298 531.869 706.725C537.441 701.153 540.572 693.595 540.572 685.714C540.572 677.834 537.441 670.276 531.869 664.703C526.296 659.131 518.738 656 510.857 656C502.977 656 495.419 659.131 489.846 664.703C484.274 670.276 481.143 677.834 481.143 685.714Z" fill="#DAD9B4"/>
<path d="M510.857 723.429C490.286 723.429 473.143 706.286 473.143 685.714C473.143 665.143 490.286 648 510.857 648C531.429 648 548.572 665.143 548.572 685.714C548.572 706.286 531.429 723.429 510.857 723.429ZM510.857 664C499.429 664 490.286 673.143 490.286 684.571C490.286 696 499.429 705.143 510.857 705.143C522.286 705.143 531.429 696 531.429 684.571C532.572 674.286 523.429 664 510.857 664Z" fill="#141515"/>
<path d="M635.429 685.714C635.429 693.595 638.559 701.153 644.132 706.725C649.704 712.298 657.262 715.429 665.143 715.429C673.024 715.429 680.582 712.298 686.154 706.725C691.727 701.153 694.857 693.595 694.857 685.714C694.857 677.834 691.727 670.276 686.154 664.703C680.582 659.131 673.024 656 665.143 656C657.262 656 649.704 659.131 644.132 664.703C638.559 670.276 635.429 677.834 635.429 685.714Z" fill="#DAD9B4"/>
<path d="M665.143 723.429C644.572 723.429 627.429 706.286 627.429 685.714C627.429 665.143 644.572 648 665.143 648C685.714 648 702.857 665.143 702.857 685.714C702.857 706.286 685.714 723.429 665.143 723.429ZM665.143 664C653.714 664 644.572 673.143 644.572 684.571C644.572 696 653.714 705.143 665.143 705.143C676.572 705.143 685.714 696 685.714 684.571C686.857 674.286 677.714 664 665.143 664Z" fill="#141515"/>
<path d="M229.714 226.286C226.286 226.286 222.857 224 221.714 220.571C220.571 216 222.857 211.429 226.286 210.286L668.571 45.7143C673.143 44.5714 677.714 46.8571 678.857 50.2857C680 54.8571 677.714 59.4286 674.286 60.5714L232 225.143C232 226.286 230.857 226.286 229.714 226.286Z" fill="#141515"/>
<path d="M32.0001 604.571C30.8572 604.571 29.7144 604.571 28.5715 603.428C24.0001 601.143 22.8572 596.571 24.0001 593.143L86.8572 443.428C89.143 438.857 93.7144 437.714 97.143 438.857C101.714 441.143 102.857 445.714 101.714 449.143L38.8572 598.857C38.8572 602.286 35.4287 604.571 32.0001 604.571Z" fill="#141515"/>
<path d="M144 454.857H73.1431C68.5716 454.857 65.1431 451.428 65.1431 446.857C65.1431 442.286 68.5716 438.857 73.1431 438.857H144C148.572 438.857 152 442.286 152 446.857C152 451.428 148.572 454.857 144 454.857Z" fill="#141515"/>
<path d="M189.714 203.429H387.428C395.428 203.429 402.286 210.286 402.286 218.286V262.857C402.286 270.857 395.428 277.714 387.428 277.714H189.714C181.714 277.714 174.857 270.857 174.857 262.857V218.286C174.857 210.286 181.714 203.429 189.714 203.429Z" fill="#7E8495"/>
<path d="M387.428 285.714H189.714C177.143 285.714 166.857 275.429 166.857 262.857V218.286C166.857 205.714 177.143 195.429 189.714 195.429H387.428C400 195.429 410.285 205.714 410.285 218.286V262.857C410.285 275.429 400 285.714 387.428 285.714ZM189.714 211.429C186.286 211.429 182.857 214.857 182.857 218.286V262.857C182.857 266.286 186.286 269.714 189.714 269.714H387.428C390.857 269.714 394.285 266.286 394.285 262.857V218.286C394.285 214.857 390.857 211.429 387.428 211.429H189.714Z" fill="#141515"/>
<path d="M141.714 250.286H721.143V285.714H141.714V250.286Z" fill="#E9606E"/>
<path d="M720 293.714H140.571C136 293.714 132.571 290.286 132.571 285.714V250.286C132.571 245.714 136 242.286 140.571 242.286H720C724.571 242.286 728 245.714 728 250.286V285.714C729.143 290.286 724.571 293.714 720 293.714ZM149.714 277.714H712V258.286H148.571L149.714 277.714Z" fill="#141515"/>
<path d="M561.143 286.857H600V435.428H561.143V286.857Z" fill="#F08FA2"/>
<path d="M600 444.571H561.143C556.571 444.571 553.143 441.143 553.143 436.571V288C553.143 283.429 556.571 280 561.143 280H600C604.571 280 608 283.429 608 288V436.571C608 440 604.571 444.571 600 444.571ZM569.143 427.429H592V294.857H569.143V427.429Z" fill="#141515"/>
<path d="M350.857 286.857H389.714V435.428H350.857V286.857Z" fill="#F08FA2"/>
<path d="M388.571 444.571H349.714C345.143 444.571 341.714 441.143 341.714 436.571V288C341.714 283.429 345.143 280 349.714 280H388.571C393.143 280 396.571 283.429 396.571 288V436.571C396.571 440 393.143 444.571 388.571 444.571ZM358.857 427.429H381.714V294.857H358.857V427.429Z" fill="#141515"/>
<path d="M709.714 498.286H284.571C280 498.286 276.571 494.857 276.571 490.286C276.571 485.714 280 482.286 284.571 482.286H709.714C714.286 482.286 717.714 485.714 717.714 490.286C717.714 494.857 714.286 498.286 709.714 498.286Z" fill="#141515"/>
<path d="M632 356.572C629.714 356.572 627.429 355.429 626.286 354.286C622.857 350.857 622.857 346.286 626.286 342.857L662.857 306.286C666.286 302.857 670.857 302.857 674.286 306.286C677.714 309.714 677.714 314.286 674.286 317.714L637.714 354.286C636.572 356.571 634.286 356.572 632 356.572Z" fill="#141515"/>
<path d="M637.714 398.857C635.429 398.857 633.143 397.714 632 396.571C628.572 393.143 628.572 388.571 632 385.143L698.286 316.571C701.714 313.143 706.286 313.143 709.714 316.571C713.143 320 713.143 324.571 709.714 328L643.429 396.571C642.286 398.857 640 398.857 637.714 398.857Z" fill="#141515"/>
<path d="M93.7144 365.714C91.4287 365.714 89.143 364.571 88.0001 363.428C84.5716 360 84.5716 355.428 88.0001 352L124.572 315.428C128 312 132.572 312 136 315.428C139.429 318.857 139.429 323.428 136 326.857L99.4287 363.428C98.2859 364.571 96.0001 365.714 93.7144 365.714Z" fill="#141515"/>
<path d="M99.4288 408C97.1431 408 94.8574 406.857 93.7145 405.714C90.2859 402.286 90.2859 397.714 93.7145 394.286L160 325.714C163.429 322.286 168 322.286 171.429 325.714C174.857 329.143 174.857 333.714 171.429 337.143L105.143 405.714C104 406.857 101.714 408 99.4288 408Z" fill="#141515"/>
</svg>
